<svg width="24" height="20" viewBox="0 0 24 20" fill="none" xmlns="http://www.w3.org/2000/svg">
<path d="M1.33398 13.8945C0.953125 13.9043 0.611328 13.5625 0.611328 13.1621C0.611328 8.39648 3.26758 4.65625 7.14453 3.23047L6.85156 2.42969C6.58789 1.69727 6.87109 1.05273 7.53516 0.808594C8.16016 0.583984 8.81445 0.896484 9.07812 1.61914L11.6367 8.64062C11.7637 8.99219 11.998 9.09961 12.2227 9.02148C12.418 8.94336 12.5254 8.70898 12.3984 8.35742L11.627 6.22852C11.5 5.88672 11.6465 5.62305 12.0371 5.47656C12.9062 5.16406 13.7461 5.48633 14.1465 6.58984L14.5176 7.58594C14.6445 7.94727 14.8691 8.05469 15.1035 7.9668C15.3086 7.89844 15.4062 7.66406 15.2793 7.3125L14.8887 6.22852C14.7617 5.87695 14.8887 5.62305 15.2988 5.47656C16.1777 5.1543 17.0566 5.58398 17.418 6.58008L17.6133 7.09766C17.7402 7.44922 17.9746 7.55664 18.1992 7.47852C18.4043 7.41016 18.5117 7.16602 18.3848 6.82422L18.0918 6.0332C18.0137 5.80859 18.0918 5.62305 18.3262 5.54492C19.2734 5.19336 20.4648 5.96484 21.0703 7.625L21.7344 9.45117C23.3359 13.8457 21.9297 17.2832 17.8086 18.7773C14.7227 19.9004 11.627 19.2168 8.93164 15.877L5.69922 11.8535C5.58203 11.707 5.47461 11.5312 5.38672 11.3164C5.17188 10.7207 5.45508 10.0859 6.13867 9.8418C6.62695 9.65625 7.05664 9.80273 7.44727 10.2227L9.9375 12.8984C10.1133 13.084 10.2598 13.1328 10.4062 13.084C10.5527 13.0254 10.6504 12.8496 10.5625 12.6152L7.64258 4.58789C4.30273 5.80859 2.125 8.95312 2.02734 13.1816C2.01758 13.582 1.72461 13.8848 1.33398 13.8945Z" fill="#2DE0CB"/>
</svg>
