<svg width="25" height="28" viewBox="0 0 25 28" fill="none" xmlns="http://www.w3.org/2000/svg">
<path d="M8.80728 5.25195C8.68033 5.25195 8.59244 5.17383 8.57291 5.04688C8.30923 3.62109 8.32877 3.63086 6.86392 3.33789C6.7272 3.30859 6.64908 3.2207 6.64908 3.10352C6.64908 2.97656 6.73697 2.88867 6.87369 2.85938C8.32877 2.58594 8.2897 2.57617 8.57291 1.16016C8.59244 1.0332 8.68033 0.955078 8.80728 0.955078C8.93423 0.955078 9.02213 1.0332 9.05142 1.16016C9.32486 2.56641 9.29556 2.56641 10.7506 2.85938C10.8776 2.88867 10.9655 2.9668 10.9655 3.10352C10.9655 3.23047 10.8776 3.30859 10.7409 3.33789C9.29556 3.60156 9.29556 3.61133 9.05142 5.04688C9.02213 5.17383 8.92447 5.25195 8.80728 5.25195ZM15.6042 7.85938C15.4479 7.85938 15.3112 7.74219 15.2917 7.57617C14.9889 5.31055 14.9303 5.33008 12.5768 4.86133C12.4108 4.83203 12.2936 4.71484 12.2936 4.53906C12.2936 4.37305 12.4108 4.24609 12.5768 4.22656C14.9303 3.89453 14.9987 3.82617 15.2917 1.53125C15.3112 1.3457 15.4381 1.22852 15.6042 1.22852C15.7799 1.22852 15.9167 1.3457 15.9264 1.54102C16.2096 3.79688 16.317 3.76758 18.651 4.22656C18.817 4.25586 18.9342 4.37305 18.9342 4.53906C18.9342 4.72461 18.817 4.83203 18.612 4.86133C16.3073 5.23242 16.2096 5.30078 15.9264 7.54688C15.9167 7.74219 15.7799 7.85938 15.6042 7.85938ZM13.3971 9.38281C13.2604 9.88086 13.2311 10.4277 13.2897 11.0137L10.028 7.74219C10.0475 7.71289 10.0573 7.69336 10.0866 7.67383C10.526 7.23438 11.2292 7.22461 11.6784 7.67383L13.3971 9.38281ZM8.19205 24.2168L1.54166 17.5664C1.09244 17.1172 1.09244 16.4141 1.54166 15.9648C1.99088 15.5254 2.694 15.5254 3.13345 15.9648L7.33267 20.1738C7.40103 19.8809 7.47916 19.5781 7.59634 19.2656L1.56119 13.2305C1.12173 12.791 1.11197 12.0781 1.56119 11.6387C2.00064 11.1895 2.71353 11.1992 3.15298 11.6387L8.71939 17.2051C8.88541 16.9707 9.06119 16.7363 9.24673 16.5215L3.18228 10.457C2.73306 10.0078 2.73306 9.30469 3.18228 8.86523C3.6315 8.41602 4.33463 8.41602 4.77408 8.86523L10.9167 14.998C11.1608 14.832 11.4049 14.6953 11.6491 14.5781L6.33658 9.26562C5.88736 8.82617 5.88736 8.11328 6.33658 7.67383C6.77603 7.22461 7.47916 7.22461 7.92838 7.67383L15.2233 14.9688C15.4577 15.2031 15.6237 15.1836 15.7506 15.0566C15.8483 14.9492 15.8776 14.7734 15.7604 14.4805L14.6471 11.4434C14.3249 10.5254 14.3542 9.93945 14.8522 9.5C15.3014 9.11914 15.8678 9.14844 16.2585 9.58789C16.6003 9.97852 17.1471 11.0918 17.5866 11.9512C18.4753 13.6113 19.4713 15.5449 19.8815 17.2832C20.653 19.9492 20.1452 22.166 18.0358 24.2754C15.2331 27.0781 11.2975 27.3223 8.19205 24.2168ZM21.7858 24.2754C20.5944 25.4766 19.1686 26.209 17.7038 26.3945C18.1725 26.082 18.6217 25.7109 19.0514 25.2812C21.444 22.8984 22.1667 20.1934 21.2682 16.9805C20.8678 15.125 19.8229 13.084 18.9733 11.4727C18.7194 11.0039 18.4753 10.5156 18.2311 10.0469C18.2897 9.8418 18.4167 9.65625 18.6022 9.5C19.0514 9.11914 19.6178 9.14844 19.9987 9.58789C20.3405 9.96875 20.8874 11.082 21.3366 11.9512C22.2253 13.6113 23.2116 15.5449 23.6315 17.2832C24.403 19.9492 23.8952 22.166 21.7858 24.2754ZM3.15298 27.4492C3.0065 27.4492 2.90884 27.3516 2.87955 27.1953C2.53775 25.291 2.56705 25.2715 0.555328 24.8711C0.399078 24.8418 0.301422 24.7539 0.301422 24.5977C0.301422 24.4316 0.399078 24.3438 0.555328 24.3145C2.56705 23.9336 2.50845 23.8945 2.87955 21.9902C2.90884 21.834 3.0065 21.7363 3.15298 21.7363C3.319 21.7363 3.40689 21.834 3.43619 21.9902C3.80728 23.8848 3.75845 23.9141 5.77017 24.3145C5.92642 24.3438 6.01431 24.4316 6.01431 24.5977C6.01431 24.7539 5.92642 24.8418 5.76041 24.8711C3.76822 25.2422 3.76822 25.2812 3.43619 27.1953C3.40689 27.3516 3.319 27.4492 3.15298 27.4492Z" fill="#2DE0CB"/>
</svg>
